<svg xmlns="http://www.w3.org/2000/svg" width="9.884" height="8.47" viewBox="0 0 9.884 8.47">
  <path id="Icon_ionic-md-eye-off" data-name="Icon ionic-md-eye-off" d="M7.193,6.282a2.241,2.241,0,0,1,2.248,2.23,2.145,2.145,0,0,1-.161.816l1.312,1.3a5.273,5.273,0,0,0,1.542-2.118A5.323,5.323,0,0,0,5.4,5.479l.971.964A2.222,2.222,0,0,1,7.193,6.282ZM2.7,5.067,3.726,6.084l.207.205A5.248,5.248,0,0,0,2.25,8.512a5.331,5.331,0,0,0,6.911,2.969l.19.187,1.317,1.3.571-.567L3.269,4.5ZM5.184,7.531l.7.69a1.264,1.264,0,0,0-.035.289A1.341,1.341,0,0,0,7.193,9.847a1.268,1.268,0,0,0,.291-.035l.7.69A2.236,2.236,0,0,1,4.945,8.508,2.2,2.2,0,0,1,5.184,7.531ZM7.12,7.184,8.536,8.59l.009-.071A1.341,1.341,0,0,0,7.2,7.182Z" transform="translate(-2.25 -4.5)"/>
</svg>
