<svg id="그룹_52" data-name="그룹 52" xmlns="http://www.w3.org/2000/svg" width="13" height="13" viewBox="0 0 13 13">
  <path id="사각형_138" data-name="사각형 138" d="M0,0H6A0,0,0,0,1,6,0V5A1,1,0,0,1,5,6H0A0,0,0,0,1,0,6V0A0,0,0,0,1,0,0Z" fill="#242424"/>
  <path id="사각형_139" data-name="사각형 139" d="M0,0H6A0,0,0,0,1,6,0V6A0,0,0,0,1,6,6H1A1,1,0,0,1,0,5V0A0,0,0,0,1,0,0Z" transform="translate(7)" fill="#242424"/>
  <path id="사각형_140" data-name="사각형 140" d="M1,0H6A0,0,0,0,1,6,0V6A0,0,0,0,1,6,6H0A0,0,0,0,1,0,6V1A1,1,0,0,1,1,0Z" transform="translate(7 7)" fill="#242424"/>
  <path id="사각형_141" data-name="사각형 141" d="M0,0H5A1,1,0,0,1,6,1V6A0,0,0,0,1,6,6H0A0,0,0,0,1,0,6V0A0,0,0,0,1,0,0Z" transform="translate(0 7)" fill="#242424"/>
</svg>
