<svg xmlns="http://www.w3.org/2000/svg" width="15" height="15" viewBox="0 0 15 15">
  <path id="Icon_awesome-calendar" data-name="Icon awesome-calendar" d="M.4,6.569H14.6a.407.407,0,0,1,.4.411v6.378A1.625,1.625,0,0,1,13.393,15H1.607A1.625,1.625,0,0,1,0,13.358V6.98A.407.407,0,0,1,.4,6.569ZM15,5.064V3.832A1.625,1.625,0,0,0,13.393,2.19H11.786V.411a.407.407,0,0,0-.4-.411H10.045a.407.407,0,0,0-.4.411V2.19H5.357V.411A.407.407,0,0,0,4.955,0H3.616a.407.407,0,0,0-.4.411V2.19H1.607A1.625,1.625,0,0,0,0,3.832V5.064a.407.407,0,0,0,.4.411H14.6A.407.407,0,0,0,15,5.064Z" fill="#fff" opacity="0.9"/>
</svg>
