<svg xmlns="http://www.w3.org/2000/svg" width="12.706" height="12.706" viewBox="0 0 12.706 12.706">
  <path id="Icon_ionic-md-exit" data-name="Icon ionic-md-exit" d="M9.512,13.394l.988.988,3.53-3.529L10.5,7.324l-.988.988,1.835,1.835H4.5v1.412h6.812ZM15.794,4.5H5.912A1.416,1.416,0,0,0,4.5,5.912V8.735H5.912V5.912h9.883v9.883H5.912V12.971H4.5v2.824a1.416,1.416,0,0,0,1.412,1.412h9.883a1.416,1.416,0,0,0,1.412-1.412V5.912A1.416,1.416,0,0,0,15.794,4.5Z" transform="translate(-4.5 -4.5)" fill="#242424" opacity="0.9"/>
</svg>
