<svg xmlns="http://www.w3.org/2000/svg" width="15.473" height="11.797" viewBox="0 0 15.473 11.797"><path d="M13.845,14.2a2.548,2.548,0,0,0,2.519-2.62,2.478,2.478,0,0,0-2.552-2.505,2.424,2.424,0,0,0-2.486,2.505A2.548,2.548,0,0,0,13.845,14.2Zm-5.718,0a2.548,2.548,0,0,0,2.519-2.62A2.478,2.478,0,0,0,8.095,9.078a2.424,2.424,0,0,0-2.486,2.505A2.548,2.548,0,0,0,8.128,14.2Zm0,1.075c-1.973,0-4.878,1.038-4.878,3.16v2.438h9.876V18.438C13.126,16.316,10.1,15.278,8.128,15.278Zm5.718.5a4.1,4.1,0,0,0-.72.045,2.753,2.753,0,0,1,1.32,2.618v2.438h4.278V18.438C18.723,16.316,15.819,15.774,13.845,15.774Z" transform="translate(-3.25 -9.078)" fill="#fff" opacity="0.9"/></svg>