<svg xmlns="http://www.w3.org/2000/svg" width="14.847" height="12.868" viewBox="0 0 14.847 12.868"><path d="M12.469,6.34a1.114,1.114,0,1,0-1.114-1.114A1.115,1.115,0,0,0,12.469,6.34Zm1.856,4.454a3.093,3.093,0,1,0,3.093,3.093A3.094,3.094,0,0,0,14.325,10.794Zm0,5.258a2.165,2.165,0,1,1,2.165-2.165A2.164,2.164,0,0,1,14.325,16.053Zm-2.6-6.5h2.6V8.444h-1.98l-1.2-2.02a1.05,1.05,0,0,0-.906-.517,1.037,1.037,0,0,0-.742.309L7.21,8.5a1.051,1.051,0,0,0,.217,1.655L9.5,11.413v3.093h1.114V10.5L9.221,9.464l1.435-1.441,1.07,1.534ZM5.664,10.794a3.093,3.093,0,1,0,3.093,3.093,3.094,3.094,0,0,0-3.093-3.093Zm0,5.258a2.165,2.165,0,1,1,2.165-2.165A2.164,2.164,0,0,1,5.664,16.053Z" transform="translate(-2.571 -4.113)" fill="#5323b2" opacity="0.9"/></svg>