<svg xmlns="http://www.w3.org/2000/svg" width="21" height="18" viewBox="0 0 21 18">
  <path id="Icon_metro-directions-bike" data-name="Icon metro-directions-bike" d="M16.571,7.229A1.558,1.558,0,1,0,15,5.671,1.568,1.568,0,0,0,16.571,7.229ZM19.2,13.459a4.327,4.327,0,1,0,4.375,4.327A4.353,4.353,0,0,0,19.2,13.459Zm0,7.356a3.029,3.029,0,1,1,3.062-3.029A3.044,3.044,0,0,1,19.2,20.815Zm-3.675-9.087H19.2V10.171H16.4L14.7,7.345a1.495,1.495,0,0,0-2.332-.29l-3.238,3.2a1.461,1.461,0,0,0,.306,2.315l2.931,1.757v4.327h1.575V13.044L11.977,11.6l2.03-2.016,1.514,2.146ZM6.946,13.459a4.327,4.327,0,1,0,4.375,4.327,4.353,4.353,0,0,0-4.375-4.327Zm0,7.356a3.029,3.029,0,1,1,3.063-3.029A3.044,3.044,0,0,1,6.946,20.815Z" transform="translate(-2.571 -4.113)" opacity="0.9"/>
</svg>
