<svg xmlns="http://www.w3.org/2000/svg" width="50.688" height="43.447" viewBox="0 0 50.688 43.447">
  <path id="Icon_metro-directions-bike" data-name="Icon metro-directions-bike" d="M36.362,11.633a3.76,3.76,0,1,0-3.8-3.76A3.785,3.785,0,0,0,36.362,11.633ZM42.7,26.672a10.445,10.445,0,1,0,10.56,10.444A10.506,10.506,0,0,0,42.7,26.672Zm0,17.755a7.311,7.311,0,1,1,7.392-7.311A7.346,7.346,0,0,1,42.7,44.427Zm-8.87-21.932H42.7v-3.76H35.94l-4.087-6.82a3.608,3.608,0,0,0-5.628-.7l-7.814,7.718a3.525,3.525,0,0,0,.739,5.587l7.075,4.24V39.2h3.8V25.669l-4.752-3.488,4.9-4.867,3.654,5.18Zm-20.7,4.178a10.445,10.445,0,1,0,10.56,10.444,10.506,10.506,0,0,0-10.56-10.444Zm0,17.755a7.311,7.311,0,1,1,7.392-7.311A7.346,7.346,0,0,1,13.131,44.427Z" transform="translate(-2.571 -4.113)" opacity="0.9"/>
</svg>
